<svg width="13" height="22" viewBox="0 0 13 22" fill="none" xmlns="http://www.w3.org/2000/svg">
<path d="M8 20.5V15.4612C8 14.8537 7.72382 14.2791 7.24939 13.8995L5.5 12.5M5.5 12.5L7 6M5.5 12.5L4 11.5M7 6L5 5.5M7 6L9.04256 9.2681C9.33451 9.73521 9.80618 10.0612 10.3463 10.1693L12 10.5M4 11.5L5 5.5M4 11.5L2 20.5M5 5.5L2.10557 6.94721C1.428 7.286 1 7.97852 1 8.73607V10.5M8.5 2C8.5 2.55228 8.05228 3 7.5 3C6.94772 3 6.5 2.55228 6.5 2C6.5 1.44772 6.94772 1 7.5 1C8.05228 1 8.5 1.44772 8.5 2Z" stroke="#5E5D5B" stroke-width="2" stroke-linecap="round" stroke-linejoin="round"/>
</svg>
